<?xml version="1.0" encoding="iso-8859-1"?>
<!-- Uploaded to: SVG Repo, www.svgrepo.com, Generator: SVG Repo Mixer Tools -->
<svg fill="#000000" height="800px" width="800px" version="1.1" id="Layer_1" xmlns="http://www.w3.org/2000/svg" xmlns:xlink="http://www.w3.org/1999/xlink" 
	 viewBox="0 0 512 512" xml:space="preserve">
<g>
	<g>
		<path d="M466.189,82.189c-25.26,0-45.81,20.55-45.81,45.81v5.423c-3.683-2.771-7.851-4.929-12.355-6.32
			c6.665-29.767-1.538-62.223-24.658-85.343c-17.375-17.374-40.438-26.939-64.956-26.939h-0.053
			c-21.928,0.013-42.702,7.674-59.285,21.724c-16.595-14.05-37.432-21.712-59.464-21.724h-0.054
			c-24.633,0-47.765,9.566-65.138,26.939c-22.788,22.788-31.085,54.644-24.939,84.056c-6.623,1.057-12.713,3.727-17.855,7.596
			v-5.413c0-25.26-20.55-45.81-45.811-45.81C20.55,82.188,0,102.739,0,127.999v180.279c0,14.522,6.324,28.271,17.349,37.72
			l44.752,38.359c8.485,7.274,13.352,17.854,13.352,29.03v48.833c0,19.277,15.682,34.959,34.958,34.959h291.178
			c19.276,0,34.958-15.682,34.958-34.959v-48.833c0-11.176,4.867-21.756,13.352-29.03l44.752-38.359
			c11.025-9.449,17.349-23.197,17.349-37.72V127.999C512,102.739,491.45,82.189,466.189,82.189z M145.848,53.194
			c14.321-14.321,33.39-22.205,53.705-22.205h0.044c20.328,0.012,39.42,7.914,53.759,22.253c1.516,1.516,3.572,2.367,5.716,2.367
			c2.144,0,4.201-0.852,5.716-2.367c14.338-14.339,33.365-22.241,53.577-22.253h0.044c20.198,0,39.205,7.884,53.524,22.205
			c29.576,29.576,29.59,77.694,0.039,107.287L259.063,270.369L145.807,160.477C116.26,130.884,116.274,82.768,145.848,53.194z
			 M355.705,198.874v33.885c-11.153,0.549-21.735,5.175-29.764,13.211L307.2,264.727v-18.645L355.705,198.874z M204.8,240.246
			v24.481l-18.741-18.757c-8.029-8.036-18.61-12.663-29.764-13.211v-39.577L204.8,240.246z M91.621,165.726
			c0-12.822,10.003-23.344,22.613-24.191c4.486,11.076,11.213,21.449,20.181,30.417c0.028,0.028,0.057,0.057,0.087,0.085
			l5.624,5.457v57.381c-9.653,3.097-18.041,9.359-23.789,17.983l-0.524,0.786c-4.551,6.825-7.081,14.508-7.667,22.268
			l-16.526-16.523V165.726z M110.411,481.01c-10.361,0-18.79-8.429-18.79-18.791v-48.833c0-15.901-6.924-30.957-18.998-41.305
			l-44.752-38.359c-7.438-6.375-11.703-15.648-11.703-25.444V127.999c0-16.344,13.297-29.642,29.642-29.642
			s29.642,13.298,29.642,29.642v134.737c0,2.144,0.852,4.2,2.368,5.717l42.964,42.964c0.229,0.238,0.46,0.474,0.694,0.708
			c14.863,14.85,32.936,32.922,39.773,39.759l2.8,2.8c3.156,3.155,8.275,3.157,11.432,0c3.157-3.158,3.157-8.276,0-11.433
			l-43.135-43.135c-9.59-10.114-10.918-25.753-3.085-37.503l0.524-0.786c4.86-7.29,12.648-11.966,21.367-12.826
			c8.714-0.862,17.271,2.198,23.465,8.397l32.162,32.19c0.248,0.286,0.515,0.553,0.801,0.801l29.145,29.171
			c7.214,7.22,11.186,16.818,11.186,27.024V481.01H110.411z M256,318.034c-2.197-3.549-4.808-6.876-7.833-9.903l-27.198-27.222
			v-24.975l32.474,31.509c1.568,1.521,3.599,2.282,5.63,2.282c2.035,0,4.069-0.764,5.638-2.291l26.321-25.617v19.092l-27.198,27.222
			C260.808,311.159,258.197,314.485,256,318.034z M495.832,308.278c0,9.783-4.275,19.078-11.703,25.444l-44.752,38.359
			c-12.073,10.349-18.998,25.405-18.998,41.306v48.833c0,10.378-8.413,18.79-18.79,18.79H264.084V346.584
			c0-10.207,3.973-19.804,11.186-27.024l29.145-29.171c0.286-0.248,0.553-0.516,0.801-0.801l32.162-32.19
			c6.193-6.198,14.749-9.26,23.465-8.397c8.719,0.861,16.507,5.537,21.368,12.827l0.523,0.785
			c7.834,11.751,6.506,27.39-3.084,37.503l-43.136,43.136c-3.215,3.216-3.156,8.465,0.178,11.606
			c3.222,3.035,8.364,2.72,11.494-0.412l2.427-2.428c6.732-6.731,24.946-24.944,39.907-39.893c0.234-0.234,0.466-0.47,0.694-0.708
			l42.964-42.963c1.517-1.517,2.368-3.572,2.368-5.717v-28.608c0-4.465-3.62-8.084-8.084-8.084c-4.465,0-8.084,3.62-8.084,8.084
			v25.26l-16.524,16.524c-0.586-7.76-3.117-15.444-7.668-22.269l-0.523-0.785c-5.75-8.624-14.138-14.887-23.79-17.984v-51.737
			l11.414-11.109c0.026-0.026,0.052-0.052,0.078-0.077c8.696-8.696,15.266-18.721,19.749-29.42
			c9.973,3.01,17.266,12.254,17.266,23.193v29.023c0,4.465,3.62,8.084,8.084,8.084c4.465,0,8.084-3.62,8.084-8.084V128.63
			c0-16.13,12.622-29.781,28.745-30.26c16.753-0.497,30.539,12.986,30.539,29.629V308.278z"/>
	</g>
</g>
</svg>