<svg stroke="#FFD675" fill="#FFD675" xml:space="preserve" viewBox="0 140.3117088 428.25721799999997 145.590426" xmlns:xlink="http://www.w3.org/1999/xlink" xmlns="http://www.w3.org/2000/svg" id="Capa_1" version="1.1" style="max-height: 500px" width="428.25721799999997" height="145.590426">

<g stroke-width="0" id="SVGRepo_bgCarrier"/>

<g stroke-linejoin="round" stroke-linecap="round" id="SVGRepo_tracerCarrier"/>

<g id="SVGRepo_iconCarrier"> <g> <path d="M34.423,264.644c-9.455,0-17.143-2.803-22.9-8.316c1.147,5.307,2.938,9.996,5.657,13.043 c2.086,2.338,4.496,3.427,7.583,3.427h186.444c0.566,0,22.091-0.077,51.34-2.508c-27.599-1.467-49.303-5.064-52.68-5.646H34.423z" style="fill:#0b0c0c;"/> <path d="M409.472,210.274c-2.585,1.615-5.642,3.039-9.152,4.243c-0.537,0.184-1.085,0.272-1.622,0.272 c-2.077,0-4.017-1.304-4.729-3.379c-0.625-1.823-0.119-3.745,1.123-5.053c-1.149-0.068-2.411-0.139-3.781-0.215 c-27.89-1.549-100.214-5.562-170.358-48.742c-0.384,3.361-1.325,7.389-3.261,11.963c-2.856,6.751-3.258,13.701-1.073,18.592 c1.618,3.623,4.699,6.28,9.132,7.927l17.594-18.458c1.905-1.998,5.07-2.075,7.068-0.17c1.999,1.904,2.075,5.07,0.17,7.069 l-28.308,29.701c-0.982,1.03-2.3,1.55-3.62,1.55c-1.239,0-2.48-0.458-3.448-1.381c-2-1.905-2.075-5.069-0.17-7.069l2.007-2.105 c-29.939-3.386-144.06-17.312-195.554-38.126c-2.843,6.632-8.306,22.804-10.854,53.378c-0.006,0.063-1.147,17.506,6.714,27.72 c3.654,4.748,9.565,6.655,17.074,6.655c0,0,176.472,0.027,176.765,0.08c0.344,0.061,34.816,6.189,73.992,6.189 c18.618,0,35.39-1.371,49.849-4.076c32.181-6.02,52.362-13.133,64.491-19.711c4.541-2.766,8.656-5.739,12.221-8.951 c0.132-0.119,4.608-4.052,3.858-8.366C415.463,219.025,414.264,213.911,409.472,210.274z M104.602,200.009 c-0.448,2.405-2.549,4.086-4.91,4.086c-3.232,0-63.611-13.871-63.836-13.935c-2.658-0.747-4.207-3.508-3.461-6.166 c0.747-2.658,3.507-4.208,6.166-3.461c0.222,0.062,22.584,6.3,62.04,13.646C103.316,194.684,105.107,197.294,104.602,200.009z M193.503,213.158c-0.305,2.54-2.463,4.406-4.959,4.406c-1.968,0-50.469-6.652-74.11-10.743c-2.721-0.471-4.545-3.059-4.074-5.779 c0.471-2.722,3.056-4.548,5.779-4.074c23.471,4.061,48.03,7.64,72.995,10.632C191.875,207.927,193.831,210.415,193.503,213.158z M257.643,206.987c-0.383,2.47-2.512,4.235-4.936,4.235c-0.254,0-12.539-1.981-12.722-2.014c-2.719-0.483-4.531-3.079-4.048-5.798 c0.483-2.72,3.085-4.53,5.798-4.048c0.044,0.008,4.458,0.791,11.732,1.918C256.196,201.703,258.066,204.257,257.643,206.987z M299.314,212.214c-0.275,2.564-2.443,4.469-4.966,4.469c-0.178,0-14.417-1.602-21.513-2.533c-2.738-0.36-4.666-2.871-4.306-5.609 c0.359-2.738,2.868-4.666,5.608-4.307c7.017,0.923,13.993,1.756,20.736,2.477C297.62,207.006,299.608,209.468,299.314,212.214z M336.221,219.881c-0.067,0-13.975-0.694-21.357-1.27c-2.753-0.213-4.811-2.619-4.597-5.373c0.215-2.754,2.616-4.814,5.374-4.596 c7.257,0.564,14.246,0.983,20.775,1.243c2.759,0.11,4.906,2.436,4.797,5.194C341.106,217.771,338.89,219.881,336.221,219.881z M378.719,218.937c-6.354,0.702-21.48,1.242-21.507,1.242c-2.725,0-4.955-2.188-4.997-4.923c-0.043-2.761,2.16-5.034,4.922-5.077 c7.551-0.116,14.443-0.514,20.484-1.182c2.757-0.303,5.216,1.677,5.519,4.422C383.443,216.164,381.464,218.634,378.719,218.937z" style="fill:#0b0c0c;"/> <path d="M189.133,207.599c-24.965-2.992-49.524-6.57-72.995-10.632c-2.724-0.474-5.309,1.352-5.779,4.074 c-0.471,2.721,1.354,5.309,4.074,5.779c23.642,4.091,72.143,10.743,74.11,10.743c2.496,0,4.654-1.866,4.959-4.406 C193.831,210.415,191.875,207.927,189.133,207.599z" style="fill:#0b0c0c;"/> <path d="M100.601,194.179c-39.456-7.346-61.818-13.584-62.04-13.646c-2.659-0.747-5.419,0.803-6.166,3.461 c-0.746,2.658,0.803,5.419,3.461,6.166c0.225,0.063,60.604,13.935,63.836,13.935c2.361,0,4.462-1.681,4.91-4.086 C105.107,197.294,103.316,194.684,100.601,194.179z" style="fill:#0b0c0c;"/> <path d="M253.468,201.281c-7.274-1.127-11.688-1.91-11.732-1.918c-2.713-0.482-5.314,1.328-5.798,4.048 c-0.483,2.719,1.329,5.314,4.048,5.798c0.183,0.032,12.468,2.014,12.722,2.014c2.424,0,4.553-1.766,4.936-4.235 C258.066,204.257,256.196,201.703,253.468,201.281z" style="fill:#0b0c0c;"/> <path d="M377.621,208.997c-6.041,0.668-12.934,1.065-20.484,1.182c-2.762,0.043-4.965,2.316-4.922,5.077 c0.042,2.735,2.272,4.923,4.997,4.923c0.026,0,15.153-0.54,21.507-1.242c2.745-0.303,4.725-2.773,4.421-5.518 C382.837,210.674,380.378,208.695,377.621,208.997z" style="fill:#0b0c0c;"/> <path d="M336.417,209.885c-6.529-0.26-13.519-0.679-20.775-1.243c-2.758-0.219-5.159,1.842-5.374,4.596 c-0.214,2.754,1.844,5.16,4.597,5.373c7.383,0.576,21.29,1.27,21.357,1.27c2.669,0,4.885-2.11,4.992-4.802 C341.323,212.321,339.176,209.996,336.417,209.885z" style="fill:#0b0c0c;"/> <path d="M294.875,206.71c-6.743-0.721-13.72-1.554-20.736-2.477c-2.74-0.359-5.249,1.568-5.608,4.307 c-0.36,2.738,1.567,5.249,4.306,5.609c7.096,0.932,21.335,2.533,21.513,2.533c2.522,0,4.691-1.904,4.966-4.469 C299.608,209.468,297.62,207.006,294.875,206.71z" style="fill:#0b0c0c;"/> <path d="M401.103,196.785c-2.176-0.236-5.293-0.408-9.239-0.628c-28.25-1.568-103.294-5.734-173.694-52.399 c-1.808-1.197-4.195-1.138-5.892,0.212c-1.696,1.35-2.345,3.597-1.584,5.626c0.082,0.243,1.936,6.07-2.213,15.871 c-3.976,9.396-4.338,19.08-0.994,26.566c0.29,0.648,0.605,1.278,0.949,1.891c-40.662-4.913-144.244-18.864-187.292-38.037 c-2.239-0.998-4.87-0.225-6.214,1.824c-0.427,0.648-10.474,16.414-14.254,61.646c-0.032,0.288-4.306,41.708,9.037,56.667 c3.952,4.432,9.157,6.774,15.05,6.774h186.444c5.835-0.001,133.255-0.473,193.583-37.183c15.191-8.312,22.424-17.696,20.648-27.584 C424.246,211.462,417.624,198.57,401.103,196.785z M211.208,272.797H24.763c-3.087,0-5.497-1.089-7.583-3.427 c-2.72-3.047-4.511-7.736-5.657-13.043c5.758,5.514,13.445,8.316,22.9,8.316h175.444c3.377,0.581,25.081,4.178,52.68,5.646 C233.298,272.72,211.774,272.797,211.208,272.797z M411.741,228.175c-3.564,3.212-7.68,6.186-12.221,8.951 c-12.129,6.578-32.31,13.691-64.491,19.711c-14.459,2.705-31.23,4.076-49.849,4.076c-39.176,0-73.648-6.129-73.992-6.189 c-0.293-0.053-176.765-0.08-176.765-0.08c-7.509,0-13.42-1.907-17.074-6.655c-7.861-10.214-6.72-27.656-6.714-27.72 c2.548-30.574,8.011-46.746,10.854-53.378c51.494,20.814,165.614,34.74,195.554,38.126l-2.007,2.105 c-1.905,2-1.83,5.164,0.17,7.069c0.968,0.923,2.209,1.381,3.448,1.381c1.32,0,2.638-0.52,3.62-1.55l28.308-29.701 c1.905-1.998,1.829-5.164-0.17-7.069c-1.998-1.905-5.163-1.828-7.068,0.17l-17.594,18.458c-4.433-1.646-7.514-4.304-9.132-7.927 c-2.185-4.891-1.783-11.84,1.073-18.592c1.936-4.574,2.877-8.602,3.261-11.963c70.144,43.18,142.469,47.193,170.358,48.742 c1.37,0.076,2.632,0.147,3.781,0.215c-1.242,1.308-1.748,3.23-1.123,5.053c0.712,2.075,2.652,3.379,4.729,3.379 c0.537,0,1.085-0.088,1.622-0.272c3.511-1.204,6.567-2.628,9.152-4.243c4.792,3.637,5.99,8.751,6.127,9.535 C416.349,224.123,411.873,228.056,411.741,228.175z" style="fill:#0b0c0c;"/> </g> </g>

</svg>