<svg version="1.0" preserveAspectRatio="xMidYMid meet" viewBox="71.1 128.8499969076 261 56.24999865" zoomAndPan="magnify" xmlns:xlink="http://www.w3.org/1999/xlink" xmlns="http://www.w3.org/2000/svg" style="max-height: 500px" width="261" height="56.24999865"><defs><g/><clipPath id="9a847f69c6"><path clip-rule="nonzero" d="M 72.582031 131 L 125.082031 131 L 125.082031 183.492188 L 72.582031 183.492188 Z M 72.582031 131"/></clipPath></defs><g clip-path="url(#9a847f69c6)"><path fill-rule="nonzero" fill-opacity="1" d="M 87.054688 138.992188 L 83.8125 135.746094 C 85.320312 134.691406 86.933594 133.792969 88.648438 133.070312 C 91.894531 131.699219 95.335938 131.003906 98.886719 131.003906 C 102.4375 131.003906 105.882812 131.699219 109.128906 133.070312 C 112.257812 134.394531 115.074219 136.292969 117.488281 138.707031 C 119.144531 140.363281 120.554688 142.203125 121.707031 144.207031 L 116.316406 144.207031 C 112.332031 138.917969 106.003906 135.496094 98.890625 135.496094 C 94.527344 135.492188 90.464844 136.78125 87.054688 138.992188 Z M 77.730469 162.625 L 98.886719 162.625 L 98.886719 158.132812 L 77.09375 158.132812 C 77.082031 157.859375 77.074219 157.585938 77.074219 157.308594 C 77.074219 156.4375 77.128906 155.578125 77.226562 154.734375 L 98.890625 154.734375 L 98.890625 150.238281 L 78.25 150.238281 C 79.382812 146.945312 81.28125 144.007812 83.730469 141.636719 L 80.546875 138.453125 C 80.460938 138.539062 80.371094 138.621094 80.285156 138.707031 C 77.871094 141.121094 75.976562 143.9375 74.648438 147.066406 C 74.210938 148.105469 73.839844 149.164062 73.539062 150.238281 C 73.128906 151.707031 72.851562 153.207031 72.703125 154.730469 C 72.625 155.585938 72.582031 156.441406 72.582031 157.308594 C 72.582031 157.582031 72.585938 157.859375 72.59375 158.132812 C 72.640625 159.65625 72.816406 161.15625 73.117188 162.625 C 73.464844 164.308594 73.976562 165.949219 74.648438 167.546875 C 75.949219 170.621094 77.800781 173.386719 80.152344 175.769531 L 83.335938 172.585938 C 80.660156 169.863281 78.691406 166.445312 77.730469 162.625 Z M 125.066406 154.734375 C 124.921875 153.210938 124.640625 151.707031 124.234375 150.242188 L 109.019531 150.242188 L 109.019531 154.734375 L 120.546875 154.734375 C 120.648438 155.578125 120.703125 156.4375 120.703125 157.308594 C 120.703125 157.585938 120.695312 157.859375 120.683594 158.132812 L 109.019531 158.132812 L 109.019531 162.625 L 120.046875 162.625 C 117.664062 172.09375 109.082031 179.121094 98.890625 179.121094 C 94.226562 179.121094 89.90625 177.648438 86.355469 175.148438 L 83.128906 178.375 C 84.832031 179.648438 86.675781 180.710938 88.648438 181.542969 C 91.894531 182.914062 95.335938 183.609375 98.886719 183.609375 C 102.4375 183.609375 105.882812 182.914062 109.128906 181.542969 C 112.257812 180.21875 115.074219 178.320312 117.488281 175.90625 C 119.902344 173.492188 121.800781 170.675781 123.125 167.546875 C 123.796875 165.949219 124.308594 164.304688 124.65625 162.625 C 124.957031 161.152344 125.132812 159.652344 125.179688 158.132812 C 125.1875 157.859375 125.191406 157.582031 125.191406 157.304688 C 125.191406 156.441406 125.152344 155.585938 125.066406 154.734375 Z M 125.066406 154.734375" fill="#eec643"/></g><g fill-opacity="1" fill="#eec643"><g transform="translate(132.65377, 167.058402)"><g><path d="M 7.078125 -17.78125 L 0.109375 -17.78125 L 0.109375 -20.296875 L 16.90625 -20.296875 L 16.90625 -17.78125 L 9.953125 -17.78125 L 9.953125 0 L 7.078125 0 Z M 7.078125 -17.78125"/></g></g></g><g fill-opacity="1" fill="#eec643"><g transform="translate(150.542176, 167.058402)"><g><path d="M 15.984375 -5.078125 L 5.1875 -5.078125 L 2.953125 0 L -0.03125 0 L 9.15625 -20.296875 L 12.03125 -20.296875 L 21.25 0 L 18.21875 0 Z M 14.96875 -7.390625 L 10.578125 -17.34375 L 6.203125 -7.390625 Z M 14.96875 -7.390625"/></g></g></g><g fill-opacity="1" fill="#eec643"><g transform="translate(172.634455, 167.058402)"><g><path d="M 20.5 -20.296875 L 20.5 0 L 18.125 0 L 5.9375 -15.140625 L 5.9375 0 L 3.046875 0 L 3.046875 -20.296875 L 5.421875 -20.296875 L 17.609375 -5.15625 L 17.609375 -20.296875 Z M 20.5 -20.296875"/></g></g></g><g fill-opacity="1" fill="#eec643"><g transform="translate(197.046105, 167.058402)"><g><path d="M 17.109375 -10.265625 L 19.890625 -10.265625 L 19.890625 -2.34375 C 18.890625 -1.519531 17.722656 -0.882812 16.390625 -0.4375 C 15.054688 0.0078125 13.660156 0.234375 12.203125 0.234375 C 10.160156 0.234375 8.316406 -0.210938 6.671875 -1.109375 C 5.023438 -2.015625 3.734375 -3.253906 2.796875 -4.828125 C 1.859375 -6.398438 1.390625 -8.175781 1.390625 -10.15625 C 1.390625 -12.125 1.859375 -13.898438 2.796875 -15.484375 C 3.734375 -17.066406 5.023438 -18.300781 6.671875 -19.1875 C 8.328125 -20.082031 10.191406 -20.53125 12.265625 -20.53125 C 13.890625 -20.53125 15.363281 -20.265625 16.6875 -19.734375 C 18.007812 -19.203125 19.132812 -18.425781 20.0625 -17.40625 L 18.265625 -15.609375 C 16.640625 -17.171875 14.679688 -17.953125 12.390625 -17.953125 C 10.835938 -17.953125 9.445312 -17.617188 8.21875 -16.953125 C 6.988281 -16.285156 6.023438 -15.359375 5.328125 -14.171875 C 4.640625 -12.984375 4.296875 -11.644531 4.296875 -10.15625 C 4.296875 -8.6875 4.640625 -7.351562 5.328125 -6.15625 C 6.023438 -4.96875 6.988281 -4.035156 8.21875 -3.359375 C 9.445312 -2.679688 10.828125 -2.34375 12.359375 -2.34375 C 14.171875 -2.34375 15.753906 -2.78125 17.109375 -3.65625 Z M 17.109375 -10.265625"/></g></g></g><g fill-opacity="1" fill="#eec643"><g transform="translate(220.298073, 167.058402)"><g><path d="M 12.203125 0.234375 C 10.160156 0.234375 8.316406 -0.210938 6.671875 -1.109375 C 5.023438 -2.015625 3.734375 -3.257812 2.796875 -4.84375 C 1.859375 -6.425781 1.390625 -8.195312 1.390625 -10.15625 C 1.390625 -12.101562 1.859375 -13.867188 2.796875 -15.453125 C 3.734375 -17.035156 5.023438 -18.273438 6.671875 -19.171875 C 8.316406 -20.078125 10.160156 -20.53125 12.203125 -20.53125 C 14.234375 -20.53125 16.070312 -20.078125 17.71875 -19.171875 C 19.363281 -18.273438 20.648438 -17.039062 21.578125 -15.46875 C 22.503906 -13.894531 22.96875 -12.125 22.96875 -10.15625 C 22.96875 -8.175781 22.503906 -6.398438 21.578125 -4.828125 C 20.648438 -3.253906 19.363281 -2.015625 17.71875 -1.109375 C 16.070312 -0.210938 14.234375 0.234375 12.203125 0.234375 Z M 12.203125 -2.34375 C 13.691406 -2.34375 15.03125 -2.679688 16.21875 -3.359375 C 17.414062 -4.035156 18.351562 -4.96875 19.03125 -6.15625 C 19.71875 -7.351562 20.0625 -8.6875 20.0625 -10.15625 C 20.0625 -11.625 19.71875 -12.953125 19.03125 -14.140625 C 18.351562 -15.328125 17.414062 -16.257812 16.21875 -16.9375 C 15.03125 -17.613281 13.691406 -17.953125 12.203125 -17.953125 C 10.710938 -17.953125 9.363281 -17.613281 8.15625 -16.9375 C 6.945312 -16.257812 6 -15.328125 5.3125 -14.140625 C 4.632812 -12.953125 4.296875 -11.625 4.296875 -10.15625 C 4.296875 -8.6875 4.632812 -7.351562 5.3125 -6.15625 C 6 -4.96875 6.945312 -4.035156 8.15625 -3.359375 C 9.363281 -2.679688 10.710938 -2.34375 12.203125 -2.34375 Z M 12.203125 -2.34375"/></g></g></g><g fill-opacity="1" fill="#eec643"><g transform="translate(245.521496, 167.058402)"><g><path d="M 3.046875 -20.296875 L 5.9375 -20.296875 L 5.9375 -2.515625 L 16.9375 -2.515625 L 16.9375 0 L 3.046875 0 Z M 3.046875 -20.296875"/></g></g></g><g fill-opacity="1" fill="#eec643"><g transform="translate(263.612853, 167.058402)"><g><path d="M 3.046875 -20.296875 L 11.59375 -20.296875 C 13.738281 -20.296875 15.644531 -19.867188 17.3125 -19.015625 C 18.976562 -18.171875 20.269531 -16.976562 21.1875 -15.4375 C 22.101562 -13.90625 22.5625 -12.144531 22.5625 -10.15625 C 22.5625 -8.15625 22.101562 -6.382812 21.1875 -4.84375 C 20.269531 -3.3125 18.976562 -2.117188 17.3125 -1.265625 C 15.644531 -0.421875 13.738281 0 11.59375 0 L 3.046875 0 Z M 11.421875 -2.515625 C 13.066406 -2.515625 14.507812 -2.832031 15.75 -3.46875 C 17 -4.113281 17.960938 -5.007812 18.640625 -6.15625 C 19.316406 -7.3125 19.65625 -8.644531 19.65625 -10.15625 C 19.65625 -11.65625 19.316406 -12.976562 18.640625 -14.125 C 17.960938 -15.28125 17 -16.175781 15.75 -16.8125 C 14.507812 -17.457031 13.066406 -17.78125 11.421875 -17.78125 L 5.9375 -17.78125 L 5.9375 -2.515625 Z M 11.421875 -2.515625"/></g></g></g><g fill-opacity="1" fill="#eec643"><g transform="translate(288.430394, 167.058402)"><g><path d="M 17.78125 -2.515625 L 17.78125 0 L 3.046875 0 L 3.046875 -20.296875 L 17.375 -20.296875 L 17.375 -17.78125 L 5.9375 -17.78125 L 5.9375 -11.546875 L 16.125 -11.546875 L 16.125 -9.078125 L 5.9375 -9.078125 L 5.9375 -2.515625 Z M 17.78125 -2.515625"/></g></g></g><g fill-opacity="1" fill="#eec643"><g transform="translate(308.72515, 167.058402)"><g><path d="M 20.5 -20.296875 L 20.5 0 L 18.125 0 L 5.9375 -15.140625 L 5.9375 0 L 3.046875 0 L 3.046875 -20.296875 L 5.421875 -20.296875 L 17.609375 -5.15625 L 17.609375 -20.296875 Z M 20.5 -20.296875"/></g></g></g></svg>