<svg width="32" height="32" viewBox="0 0 32 32" fill="none" xmlns="http://www.w3.org/2000/svg">
<path d="M19.3742 10.596C21.3492 8.8847 23.4242 7.01599 23.4242 4.4601C23.4242 2.01815 21.6724 0 19.2415 0C17.9514 0 16.8315 0.590551 15.9964 1.70959C15.1613 0.590551 14.0414 0 12.7513 0C10.3256 0 8.56866 2.01227 8.56866 4.46016C8.56866 7.01905 10.6359 8.87795 12.6186 10.596L4.12206 13.3413L0.00195312 20.2594L3.80919 21.5753V27.9376L15.9965 32L28.1837 27.9376V21.577L31.9982 20.2594L27.8704 13.3412L19.3742 10.596ZM15.9965 16.8865L7.75286 14.1386L14.2939 12.0251C15.2004 12.7959 15.6007 13.1487 15.9964 13.4903C16.3751 13.1634 16.7864 12.8011 17.6989 12.0251L24.2399 14.1385L15.9965 16.8865ZM10.4436 4.46016C10.4436 2.98638 11.4357 1.87496 12.7513 1.87496C14.4556 1.87496 15.0642 3.90074 15.0938 4.00317L15.094 4.0038C16.0439 4.00411 15.9488 4.00411 16.8987 4.00442V4.0043C16.9237 3.91742 17.5302 1.87496 19.2415 1.87496C20.5571 1.87496 21.5492 2.98632 21.5492 4.46016C21.5492 6.29875 19.7112 7.85835 16.9292 10.219C16.6257 10.4766 16.3159 10.7395 15.9964 11.0128C15.677 10.7395 15.3672 10.4766 15.0637 10.2191C12.2816 7.85828 10.4436 6.29869 10.4436 4.46016V4.46016ZM5.16598 15.2527L14.5355 18.3759L11.8682 22.3769L2.79146 19.2397L5.16598 15.2527ZM5.68415 22.2233L12.6248 24.6222L15.0589 20.971V29.7112L5.68409 26.5863V22.2233H5.68415ZM26.3088 26.5862L16.9339 29.7112V20.971L19.368 24.6221L26.3088 22.2246V26.5862ZM20.1247 22.377L17.4573 18.3759L26.8274 15.2525L29.2066 19.2399L20.1247 22.377Z" fill="#eec643"/>
</svg>
