<svg width="456" height="32" viewBox="0 0 456 32" fill="none" xmlns="http://www.w3.org/2000/svg">
<path fill-rule="evenodd" clip-rule="evenodd" d="M454.014 6.74463H282.919C282.919 6.74463 278.459 6.42161 278.459 8.57168C278.459 10.379 282.919 10.3963 282.919 10.3963H349.345H351.481H454.014C454.014 10.3963 456 10.3987 456 8.55935C456 6.71749 454.014 6.74463 454.014 6.74463Z" fill="#eec643"/>
<path fill-rule="evenodd" clip-rule="evenodd" d="M175.558 6.74463H4.46235C4.46235 6.74463 0 6.42161 0 8.57168C0 10.379 4.46235 10.3963 4.46235 10.3963H70.8859H73.0249H175.558C175.558 10.3963 177.541 10.3987 177.541 8.55935C177.541 6.71749 175.558 6.74463 175.558 6.74463Z" fill="#eec643"/>
<path fill-rule="evenodd" clip-rule="evenodd" d="M178.743 17.1346H67.683C67.683 17.1346 64.7871 16.9161 64.7871 18.349C64.7871 19.5559 67.683 19.5686 67.683 19.5686H110.801H112.187H178.743C178.743 19.5686 180.033 19.5686 180.033 18.3414C180.033 17.1142 178.743 17.1346 178.743 17.1346Z" fill="#eec643"/>
<path fill-rule="evenodd" clip-rule="evenodd" d="M389.926 17.1346H278.861C278.861 17.1346 275.967 16.9161 275.967 18.349C275.967 19.5559 278.861 19.5686 278.861 19.5686H321.982H323.368H389.926C389.926 19.5686 391.213 19.5686 391.213 18.3414C391.213 17.1142 389.926 17.1346 389.926 17.1346Z" fill="#eec643"/>
<path d="M254.22 6.93187C249.387 7.19716 247.417 8.34421 247.417 8.34421C253.895 10.1684 256.69 15.1658 256.69 15.1658C252.137 13.0511 247.935 11.136 247.935 11.136C252.011 14.562 251.739 19.4736 251.739 19.4736C248.616 13.511 243.88 10.3882 240.459 8.80403C243.744 10.8758 250.602 16.9521 251.286 31.7979C251.286 31.7979 263.176 28.4579 257.429 18.18C257.429 18.18 262.516 21.9698 269.115 20.5549C269.115 20.5549 269.06 12.6241 258.846 9.89297C258.846 9.89297 263.331 10.0117 267.488 4.80202C267.488 4.80202 260.921 -5.11459 242.421 5.56503C249.913 5.04204 254.22 6.93187 254.22 6.93187Z" fill="#eec643"/>
<path d="M201.782 6.93187C206.612 7.19716 208.581 8.34421 208.581 8.34421C202.106 10.1684 199.311 15.1658 199.311 15.1658C203.864 13.0511 208.063 11.136 208.063 11.136C203.992 14.562 204.262 19.4736 204.262 19.4736C207.384 13.511 212.12 10.3882 215.541 8.80403C212.256 10.8758 205.401 16.9521 204.718 31.7979C204.718 31.7979 192.826 28.4579 198.57 18.18C198.57 18.18 193.483 21.9698 186.885 20.5549C186.885 20.5549 186.945 12.6241 197.156 9.89297C197.156 9.89297 192.671 10.0117 188.515 4.80202C188.515 4.80202 195.081 -5.11459 213.579 5.56503C206.088 5.04204 201.782 6.93187 201.782 6.93187Z" fill="#eec643"/>
<path d="M228 25.6832L219.279 17.1225L228 8.56172L236.721 17.1225L228 25.6832Z" fill="#eec643"/>
</svg>
