<!DOCTYPE svg PUBLIC "-//W3C//DTD SVG 1.1//EN" "http://www.w3.org/Graphics/SVG/1.1/DTD/svg11.dtd">

<!-- Uploaded to: SVG Repo, www.svgrepo.com, Transformed by: SVG Repo Mixer Tools -->
<svg fill="#eec643" width="800px" height="800px" viewBox="0 0 32 32" style="fill-rule:evenodd;clip-rule:evenodd;stroke-linejoin:round;stroke-miterlimit:2;" version="1.1" xml:space="preserve" xmlns="http://www.w3.org/2000/svg" xmlns:serif="http://www.serif.com/" xmlns:xlink="http://www.w3.org/1999/xlink" stroke="#eec643">

<g id="SVGRepo_bgCarrier" stroke-width="0"/>

<g id="SVGRepo_tracerCarrier" stroke-linecap="round" stroke-linejoin="round"/>

<g id="SVGRepo_iconCarrier"> <g transform="matrix(1,0,0,1,-48,-384)"> <path d="M63.694,393.636C64.829,393.294 66.058,393.653 66.831,394.552C68.819,396.884 73.092,395.289 75.416,393.695C75.712,393.474 76.108,393.439 76.438,393.605C76.769,393.771 76.977,394.109 76.977,394.479C77,397.355 77,401.963 77,404C77,405.105 76.105,406 75,406C70.157,406 57.843,406 53,406C51.895,406 51,405.105 51,404C51,403.396 51,402.787 51.001,402.381C51.001,402.059 51.079,401.742 51.228,401.457C53.413,397.261 60.1,394.729 63.694,393.636Z" style="fill:#0b0c0c;"/> <path d="M78,402.027C78,402.018 78,402.009 78,402C78,401.991 78,401.981 78,401.972C77.998,399.688 77.994,396.604 77.977,394.471C77.977,393.731 77.555,393.047 76.887,392.711C76.225,392.379 75.433,392.445 74.836,392.88C73.575,393.743 71.687,394.62 69.985,394.718C69.056,394.772 68.181,394.593 67.592,393.903C67.591,393.902 67.59,393.901 67.589,393.899C66.559,392.701 64.919,392.223 63.405,392.679C63.404,392.679 63.403,392.679 63.403,392.679C61.181,393.355 57.815,394.569 54.989,396.362C53.004,397.622 51.29,399.173 50.341,400.995C50.118,401.423 50.001,401.898 50.001,402.381C50,402.784 50,403.395 50,404C50,405.657 51.343,407 53,407L75,407C76.657,407 78,405.657 78,404C78,404 78,404 78,404C78,403.484 78,402.803 78,402.027ZM76,403C76,403.376 76,403.713 76,404C76,404.552 75.552,405 75,405C75,405 53,405 53,405C52.448,405 52,404.552 52,404L52.001,403L76,403ZM75.999,401C75.997,398.885 75.992,396.358 75.978,394.522C74.453,395.567 72.157,396.596 70.1,396.715C68.518,396.806 67.072,396.376 66.073,395.204C65.558,394.605 64.739,394.366 63.983,394.593L63.983,394.593C62.894,394.925 61.512,395.391 60.062,396L63,396C63.552,396 64,396.448 64,397C64,397.552 63.552,398 63,398L56.141,398C56.114,398.017 56.087,398.034 56.06,398.051C54.734,398.892 53.532,399.867 52.693,401L75.999,401Z" style="fill:#0b0c0c;"/> </g> </g>

</svg>